<svg width="19" height="23" viewBox="0 0 19 23" fill="none" xmlns="http://www.w3.org/2000/svg">
<path fill-rule="evenodd" clip-rule="evenodd" d="M5.98849 6.16262C6.26917 6.18325 6.51477 6.31503 6.68478 6.51003C6.85481 6.70502 6.94926 6.96391 6.92836 7.24076C6.90745 7.51761 6.77385 7.75986 6.57616 7.92756C6.37846 8.09525 6.11599 8.18843 5.83531 8.16782C5.55463 8.1472 5.30903 8.01541 5.13901 7.82041C4.96898 7.62542 4.87453 7.36653 4.89543 7.08968C4.91633 6.81283 5.04994 6.57058 5.24764 6.40288C5.44533 6.23517 5.7078 6.14201 5.98849 6.16262ZM14.6708 3.36276L16.5464 3.63629C16.6423 3.65026 16.7084 3.73811 16.6949 3.8326C16.6895 3.86655 16.6746 3.89716 16.653 3.92178L16.2847 4.40494L16.6699 5.01321C16.7212 5.0944 16.6956 5.20089 16.6139 5.25146C16.5775 5.27408 16.5357 5.2814 16.4958 5.27541L14.6708 5.00921V6.00615C14.7417 6.06139 14.8017 6.13193 14.8435 6.21645L14.853 6.23509C14.9272 6.38483 14.9326 6.54922 14.882 6.69429C14.8429 6.80609 14.7707 6.90725 14.6708 6.98179V7.38376C14.6708 7.47959 14.5919 7.55679 14.4954 7.55679C14.3982 7.55679 14.32 7.47892 14.32 7.38376V7.16615L13.4428 7.59739V7.59672C13.4388 7.59872 13.4354 7.60005 13.4314 7.60205C13.175 7.70587 12.9327 7.68457 12.704 7.58741C12.5387 7.51753 12.3829 7.40838 12.2351 7.27927C12.2223 7.54813 12.2236 7.90884 12.225 8.18171C12.2257 8.3228 12.2263 8.44192 12.2243 8.51446C12.7277 8.63558 13.15 8.81593 13.4584 9.05619C13.7755 9.30309 13.9725 9.61188 14.0164 9.98191V9.98324C14.017 9.98657 14.1547 11.2317 14.2302 12.2452C14.2316 12.2645 14.2296 12.2845 14.2242 12.3038C14.1979 12.3957 14.1014 12.4496 14.0083 12.4236L12.8032 12.0868C12.7357 12.0682 12.6838 12.0103 12.6764 11.9378L12.6332 11.5092C12.5806 10.9888 12.5279 10.4703 12.503 10.2414C12.4982 10.1988 12.4854 10.1609 12.4638 10.1309C12.4463 10.1063 12.4213 10.0863 12.3903 10.0737C12.283 10.0304 12.1717 9.99782 12.0563 9.96987C11.9477 9.94391 11.8256 9.91995 11.6987 9.896C11.4963 10.8929 11.2068 12.3144 10.9963 13.1005C10.9781 13.1684 10.9214 13.2163 10.856 13.2269L9.60708 13.4359C9.51194 13.4519 9.42154 13.388 9.40533 13.2942C9.40129 13.2689 9.40263 13.2436 9.40938 13.2203C9.44312 13.0539 9.84457 11.1026 10.2481 9.28576C10.2231 9.25914 10.2008 9.23119 10.1806 9.20057C10.1772 9.19592 10.1738 9.19126 10.1711 9.1866C10.0942 9.06282 10.0591 8.91373 10.076 8.71742C10.0787 8.61759 10.103 7.77971 10.215 6.87469C10.1894 6.89599 10.1617 6.92327 10.1327 6.95588L9.50251 7.67064C9.39185 7.79575 9.23937 7.86496 9.08283 7.87627C8.92697 7.88692 8.76639 7.83901 8.63954 7.72986L8.6328 7.72454C8.57005 7.67063 8.52079 7.60807 8.48503 7.53752C8.44995 7.46764 8.42971 7.39111 8.42363 7.30858C8.41824 7.22672 8.42836 7.14886 8.454 7.07498C8.47964 7.00045 8.52012 6.93256 8.57545 6.87067C8.85141 6.56188 9.16448 6.23046 9.49847 5.97023C9.84594 5.69938 10.2137 5.50904 10.5861 5.50105H10.5956L11.725 5.52235C12.2142 5.527 12.5812 5.88173 12.9598 6.24708L12.9665 6.25307C13.0063 6.29167 13.0549 6.3163 13.1055 6.32495C13.1548 6.3336 13.206 6.32761 13.2539 6.30498L14.04 5.93296C14.1311 5.88971 14.2269 5.8724 14.3213 5.8764V3.51046L14.32 3.3128C14.32 3.21697 14.3983 3.13977 14.4954 3.13977C14.5926 3.13977 14.6708 3.21697 14.6708 3.3128L14.6708 3.36276ZM16.2044 3.93576L14.6708 3.71215V4.65984L16.1714 4.8788L15.9237 4.48747C15.8866 4.42891 15.888 4.35171 15.9325 4.29315L16.2044 3.93576ZM13.7087 14.0369C13.6169 14.0076 13.5656 13.9104 13.5953 13.8199C13.625 13.7294 13.7235 13.6795 13.8153 13.7081L15.5964 14.2705C15.6592 14.2858 15.7112 14.335 15.726 14.4022C15.7402 14.4674 15.7152 14.532 15.6666 14.5719L14.2794 15.8151C14.2079 15.8797 14.0972 15.8743 14.0318 15.8038C13.9663 15.7333 13.9717 15.6241 14.0433 15.5596L14.9521 14.745L3.01509 17.3005C2.92063 17.3205 2.82685 17.2613 2.80661 17.1681C2.78637 17.0749 2.84642 16.9824 2.94088 16.9625L14.8786 14.4055L13.7087 14.0369ZM14.4252 6.25774C14.4171 6.25441 14.4097 6.25042 14.4023 6.24576C14.3949 6.24244 14.3874 6.23911 14.38 6.23645C14.3193 6.21515 14.2505 6.21582 14.1891 6.2451L13.403 6.61712C13.2863 6.67236 13.1622 6.68766 13.0434 6.66703C12.924 6.6464 12.8113 6.58917 12.7189 6.49999L12.7121 6.494C12.3842 6.17721 12.0664 5.87041 11.7196 5.86775L10.5915 5.84646C10.3074 5.85244 10.0065 6.01283 9.7137 6.2411C9.40535 6.48136 9.10511 6.80012 8.83725 7.09961C8.81228 7.12757 8.79474 7.15618 8.78462 7.18613C8.77382 7.21674 8.76977 7.25069 8.77247 7.28729C8.77517 7.32323 8.78327 7.35583 8.79811 7.38512C8.81228 7.41307 8.83387 7.43969 8.86221 7.46365L8.86828 7.46897C8.92226 7.51556 8.99108 7.53619 9.05788 7.53153C9.12401 7.52687 9.18878 7.49759 9.236 7.44368L9.86416 6.73159L9.86821 6.72759C9.96334 6.62178 10.0578 6.5479 10.1516 6.50797C10.2703 6.45673 10.3844 6.45606 10.493 6.5073C10.5659 6.54124 10.6043 6.61844 10.5908 6.69366C10.4478 7.7232 10.4248 8.7335 10.4242 8.73605C10.4242 8.73938 10.4242 8.74271 10.4235 8.74604H10.4242C10.4141 8.86317 10.4302 8.94503 10.468 9.00558C10.4701 9.00891 10.4721 9.01157 10.4734 9.0149C10.491 9.04019 10.5126 9.06348 10.5389 9.08611C10.545 9.09076 10.551 9.09542 10.5571 9.10008C10.5706 9.11073 10.5854 9.12138 10.6023 9.13203C10.6225 9.14534 10.6401 9.15599 10.657 9.16597L10.6644 9.1693H10.6651L10.6718 9.17262L10.6738 9.17329L10.6819 9.17728L10.6866 9.17928L10.6907 9.18128L10.6941 9.18327L10.6988 9.18527L10.7015 9.1866L10.7076 9.18926L10.7157 9.19325H10.7163L10.7238 9.19658H10.7244L10.7406 9.20457L10.7453 9.20656L10.7487 9.20856L10.7521 9.20989L10.7568 9.21189L10.773 9.21987H10.7737L10.7811 9.2232H10.7818L10.7899 9.2272L10.7959 9.22986L10.7986 9.23119L10.8034 9.23318L10.8067 9.23452L10.8108 9.23651L10.8155 9.23851L10.8182 9.23984C10.9201 9.28443 11.022 9.32569 11.1245 9.36429C11.1738 9.38293 11.223 9.40023 11.273 9.41753H11.2736L11.2811 9.42019C11.4288 9.47077 11.5806 9.5147 11.7406 9.55396C11.8748 9.57925 12.0037 9.60454 12.1366 9.63649C12.2709 9.66843 12.3991 9.70636 12.5199 9.75495C12.6163 9.79354 12.6926 9.8561 12.7486 9.93397C12.8046 10.0125 12.8383 10.1063 12.8491 10.2068C12.87 10.3992 12.9247 10.9376 12.9793 11.4773L13.0111 11.7887L13.8599 12.0257C13.7836 11.0866 13.6709 10.0637 13.6662 10.0231C13.6338 9.75026 13.4834 9.51867 13.2398 9.329C12.9645 9.11405 12.5711 8.95167 12.0928 8.84184C12.0239 8.82587 11.9666 8.78727 11.9268 8.73403C11.887 8.68146 11.8661 8.61624 11.8708 8.54768C11.8742 8.49178 11.8735 8.35602 11.8728 8.18498C11.8715 7.84623 11.8694 7.37439 11.8951 7.09088C11.8998 7.0383 11.9187 6.99039 11.949 6.95112C11.9801 6.91119 12.0219 6.88058 12.0718 6.86194C12.1211 6.84397 12.1731 6.84065 12.2223 6.8513C12.2716 6.86128 12.3174 6.88524 12.3552 6.92184C12.5111 7.07158 12.6737 7.20068 12.8383 7.27057C12.982 7.3318 13.1318 7.3471 13.2857 7.28787L14.4077 6.7355C14.4118 6.7335 14.4158 6.73151 14.4199 6.72951C14.4819 6.69756 14.5265 6.64366 14.5474 6.58243C14.569 6.51987 14.5669 6.45 14.5359 6.38678L14.5265 6.36814C14.5062 6.32089 14.4691 6.28303 14.4252 6.25774ZM10.686 12.9068C10.8905 12.1155 11.1651 10.7618 11.3587 9.80809C11.2939 9.78879 11.2298 9.76816 11.1671 9.7462L11.1563 9.7422L11.1529 9.74087L11.1509 9.74021C11.101 9.72291 11.0517 9.7056 11.0031 9.68697C10.8662 9.63572 10.7312 9.57982 10.5963 9.51859L10.5943 9.51793L10.5808 9.51127L10.5787 9.51061L10.574 9.50861L10.57 9.50661L10.5666 9.50528L10.5598 9.50196C10.2286 10.998 9.91954 12.4821 9.80079 13.0545L10.686 12.9068ZM11.5247 3.3088C11.2555 3.3088 11.0119 3.41661 10.8358 3.5903C10.6597 3.764 10.5504 4.00425 10.5504 4.26979C10.5504 4.53533 10.6597 4.77559 10.8358 4.94928C11.0119 5.12297 11.2555 5.23078 11.5247 5.23078C11.7939 5.23078 12.0375 5.12297 12.2136 4.94928C12.3897 4.77559 12.499 4.53467 12.499 4.26979C12.499 4.00425 12.3897 3.764 12.2136 3.5903C12.0368 3.41661 11.7932 3.3088 11.5247 3.3088ZM11.9653 3.83521C11.8526 3.72407 11.6968 3.65486 11.5247 3.65486C11.3527 3.65486 11.1968 3.7234 11.0841 3.83521C10.9714 3.94635 10.9013 4.10009 10.9013 4.26979C10.9013 4.4395 10.9708 4.59322 11.0841 4.70437C11.1968 4.81551 11.3527 4.88473 11.5247 4.88473C11.6968 4.88473 11.8526 4.81618 11.9653 4.70437C12.078 4.59323 12.1481 4.4395 12.1481 4.26979C12.1481 4.10009 12.078 3.94636 11.9653 3.83521ZM4.74858 15.7139C4.81605 15.7066 4.8761 15.66 4.89702 15.5922C5.07785 15.0019 5.30049 14.1673 5.47862 13.5005C5.54002 13.2702 5.59603 13.0593 5.64258 12.8903C5.71343 12.9169 5.78225 12.9428 5.84972 12.9675C6.05348 13.0427 6.23566 13.1105 6.3652 13.1738C6.40231 13.1917 6.43065 13.2177 6.44954 13.2483C6.46843 13.2796 6.47788 13.3162 6.47653 13.3568C6.47316 13.4499 6.47248 13.6323 6.47113 13.8586C6.46911 14.2193 6.46708 14.6924 6.45359 15.0971C6.45022 15.1922 6.52646 15.2721 6.62294 15.2748C6.63981 15.2754 6.65668 15.2734 6.6722 15.2694L7.84688 15.0132C7.92987 14.9953 7.9852 14.922 7.98385 14.8422C7.9852 13.8266 7.98385 13.0739 7.98318 12.9947C8.00139 12.612 7.84486 12.2886 7.54866 12.0177C7.25853 11.7515 6.83145 11.5386 6.30449 11.3708C6.31124 11.3143 6.32001 11.2377 6.33013 11.1472C6.35442 10.9269 6.38816 10.6228 6.42797 10.3539C6.60204 10.5163 6.80109 10.6308 7.00282 10.6774C7.24571 10.7333 7.48929 10.694 7.69777 10.5296C7.70047 10.5276 7.70249 10.5256 7.70519 10.5236L9.00199 9.38363C9.12074 9.27915 9.22127 9.15469 9.27121 9.0156C9.31844 8.88382 9.32046 8.74339 9.25299 8.59766L9.24624 8.58368H9.24692C9.21116 8.50582 9.1619 8.4386 9.09915 8.38203C9.03708 8.32613 8.96489 8.28354 8.8819 8.25492C8.80565 8.2283 8.72131 8.209 8.6363 8.20967C8.53374 8.21033 8.43455 8.23895 8.35157 8.31349L7.4542 9.11675C7.41507 9.15136 7.37863 9.19129 7.3422 9.23055C7.30779 9.26716 7.27405 9.30376 7.24706 9.32772C6.88812 8.92442 6.53524 8.54108 6.03663 8.50048C6.03325 8.50048 6.0292 8.49982 6.02583 8.49982L4.85115 8.39001L4.8444 8.38934C4.45374 8.36738 4.01923 8.56104 3.60023 8.84122C3.19878 9.10942 2.81014 9.45615 2.49438 9.76028C2.43163 9.82018 2.3844 9.88806 2.35201 9.96259C2.31962 10.0371 2.30343 10.1177 2.30276 10.2035C2.30208 10.29 2.31693 10.3706 2.34796 10.4451C2.379 10.5203 2.42488 10.5882 2.48628 10.6494L2.49235 10.6554C2.61515 10.7779 2.7764 10.8391 2.93833 10.8397C3.10027 10.8404 3.26287 10.7812 3.38905 10.6634L4.23514 9.87474L4.24121 9.86942C4.28237 9.83016 4.32015 9.79888 4.35524 9.77625C4.14877 10.7499 4.04621 11.4101 4.04621 11.4121C4.04553 11.4174 4.04486 11.4234 4.04419 11.4287C4.00573 11.6976 4.09749 11.9225 4.26685 12.1142C4.06443 12.8303 3.30942 15.7426 3.3074 15.7513H3.30807C3.302 15.7752 3.30065 15.8012 3.30605 15.8278C3.32494 15.921 3.41738 15.9815 3.51184 15.9629L4.74858 15.7139ZM4.57383 11.9305C4.57923 11.9352 4.58463 11.9398 4.58935 11.9445C4.62714 11.9804 4.66694 12.015 4.70945 12.0483C4.92873 12.2147 5.23302 12.3558 5.53598 12.4776C5.55353 12.4842 5.57107 12.4916 5.58861 12.4982C5.59266 12.4995 5.59671 12.5015 5.60008 12.5035C5.7276 12.5534 5.85378 12.6 5.97184 12.644C6.19045 12.7251 6.38477 12.797 6.52174 12.8642C6.6189 12.9122 6.69716 12.984 6.74979 13.0719C6.80242 13.1591 6.82941 13.2609 6.82603 13.3687C6.82266 13.4639 6.82199 13.6409 6.82064 13.8605C6.81929 14.1607 6.81726 14.5387 6.80917 14.8874L7.63434 14.7077C7.63568 13.7054 7.63366 12.9914 7.63366 12.9893V12.982C7.64648 12.7085 7.53043 12.4736 7.31047 12.2719C7.05205 12.0357 6.65532 11.8433 6.15536 11.6883C6.08654 11.667 6.03053 11.623 5.9941 11.5658C5.95767 11.5092 5.94147 11.4414 5.95159 11.3708C5.95834 11.3209 5.96914 11.2277 5.98196 11.1119C6.01097 10.8484 6.05348 10.4671 6.10543 10.1576C6.1142 10.1044 6.13714 10.0571 6.17155 10.0192C6.20596 9.98124 6.25117 9.95262 6.30312 9.93798C6.3544 9.92334 6.40703 9.924 6.45695 9.93864C6.50688 9.95329 6.55142 9.98057 6.58718 10.0205C6.73561 10.1862 6.91104 10.3013 7.08309 10.3413C7.22141 10.3732 7.35906 10.3526 7.4751 10.2641L8.76921 9.12605C8.84815 9.05684 8.91359 8.97964 8.94126 8.90112C8.95947 8.84987 8.96082 8.79596 8.93586 8.74206L8.92911 8.72742H8.92844C8.9109 8.69015 8.88998 8.6602 8.86434 8.63691C8.83803 8.61362 8.80631 8.59498 8.76786 8.58167C8.72333 8.56636 8.67744 8.55505 8.63899 8.55505C8.61807 8.55505 8.59985 8.55904 8.58838 8.56969L7.69101 9.37295C7.66335 9.39824 7.63164 9.43152 7.6006 9.46479C7.56147 9.50672 7.52233 9.54865 7.47713 9.58791C7.32801 9.71702 7.1762 9.77093 7.01764 9.59257L7.01089 9.58525C6.6904 9.22521 6.37937 8.87581 6.00826 8.8452C6.00286 8.84453 5.99814 8.84387 5.99274 8.8432L4.82481 8.73406C4.52119 8.71675 4.15752 8.88513 3.79588 9.12605C3.41736 9.37894 3.04356 9.71302 2.73792 10.0072C2.70891 10.0345 2.68799 10.0651 2.67382 10.0977C2.65966 10.131 2.65223 10.1669 2.65156 10.2062C2.65088 10.2454 2.65831 10.282 2.6718 10.3153C2.68529 10.3486 2.70621 10.3792 2.73455 10.4072L2.74062 10.4131C2.79527 10.4677 2.86612 10.4943 2.93831 10.495C3.0132 10.4957 3.08877 10.4677 3.14814 10.4125L3.9949 9.62252C4.10285 9.5187 4.20744 9.44949 4.30729 9.41488C4.43346 9.37095 4.55087 9.3796 4.65883 9.44017C4.72697 9.4781 4.75936 9.55463 4.74384 9.62583C4.50971 10.7006 4.39163 11.4619 4.39096 11.464C4.39028 11.468 4.38961 11.4713 4.38894 11.4746C4.366 11.6443 4.44024 11.7954 4.57383 11.9305ZM3.71628 15.5688L4.59138 15.3938C4.7695 14.8015 4.97463 14.0335 5.1406 13.4125C5.20605 13.1683 5.26475 12.9467 5.31535 12.7623C5.15409 12.6971 4.99959 12.6279 4.85519 12.5514C4.75061 12.4955 4.65075 12.4356 4.5583 12.369C4.35994 13.0944 3.89305 14.8894 3.71628 15.5688ZM6.41911 6.73475C6.30778 6.60697 6.14653 6.52112 5.96234 6.50781C5.77814 6.49384 5.60541 6.55506 5.47519 6.66554C5.34565 6.77535 5.25861 6.9344 5.24512 7.11608C5.23095 7.29776 5.29302 7.46813 5.40503 7.59658C5.51636 7.72435 5.67761 7.8102 5.8618 7.82351C6.046 7.83749 6.21873 7.77626 6.34895 7.66578C6.47849 7.55598 6.56553 7.39692 6.57902 7.21524C6.59251 7.03289 6.53044 6.86319 6.41911 6.73475Z" fill="black"/>
</svg>
