<svg width="13" height="16" viewBox="0 0 13 16" fill="none" xmlns="http://www.w3.org/2000/svg">
<path fill-rule="evenodd" clip-rule="evenodd" d="M2.50998 8.544H3.7984C3.86488 8.544 3.91843 8.59816 3.91843 8.66437V10.9704H4.62013V6.79912C4.62013 6.73245 4.67414 6.67875 4.74016 6.67875H6.02857C6.09505 6.67875 6.1486 6.73292 6.1486 6.79912V10.9709H6.8503V7.72783C6.8503 7.66117 6.90432 7.60746 6.97033 7.60746H8.25828C8.32475 7.60746 8.3783 7.66163 8.3783 7.72783V10.9709H9.08001L9.08047 5.32321C9.08047 5.25654 9.13448 5.20284 9.20049 5.20284H10.4884C10.5549 5.20284 10.6085 5.25701 10.6085 5.32321V10.9709H11.3069C11.3734 10.9709 11.427 11.025 11.427 11.0912V11.7315C11.427 11.7982 11.373 11.8519 11.3069 11.8519L1.69131 11.8523C1.62484 11.8523 1.57129 11.7982 1.57129 11.732V11.0917C1.57129 11.025 1.6253 10.9713 1.69131 10.9713H2.38979V8.66483C2.38979 8.59816 2.44334 8.544 2.50982 8.544L2.50998 8.544ZM10.5921 2.48889C10.5916 2.42268 10.5376 2.36944 10.4716 2.36991L8.73621 2.3875C8.60834 2.38935 8.49385 2.44305 8.41168 2.52824C8.33181 2.61065 8.28288 2.72268 8.28149 2.84583C8.28102 2.84907 8.28102 2.85278 8.28102 2.85602H8.28149V2.85787C8.28333 2.98611 8.33688 3.10093 8.42183 3.18333C8.504 3.26343 8.61572 3.3125 8.73852 3.31389C8.74175 3.31436 8.74544 3.31436 8.74868 3.31436V3.31389L8.97395 3.31019L6.74883 5.49721L5.0827 4.05271C4.99268 3.97447 4.88096 3.93743 4.77063 3.93975H4.76924C4.65752 3.94253 4.54673 3.98558 4.46132 4.06706L2.23714 6.19802C2.23437 6.20034 2.2316 6.20312 2.22883 6.20543C2.13788 6.29339 2.09033 6.41006 2.08757 6.52812C2.0848 6.64386 2.1245 6.76006 2.20805 6.85174C2.21082 6.85498 2.21359 6.85822 2.21682 6.86146C2.30454 6.95266 2.42088 7.00035 2.5386 7.00312C2.65678 7.0059 2.77634 6.96377 2.86868 6.87581L4.79563 5.02953L6.45668 6.46894L6.45991 6.47171C6.55039 6.5532 6.66489 6.59254 6.77937 6.58977C6.89293 6.58699 7.00604 6.54301 7.09328 6.4569L9.6804 3.91479L9.68548 4.22081C9.68871 4.44072 9.81289 4.58006 9.96939 4.64026C10.0276 4.66248 10.0908 4.67313 10.1545 4.6722C10.2178 4.67128 10.2805 4.65878 10.3382 4.6347C10.4934 4.56989 10.6129 4.42637 10.6092 4.20646L10.5921 2.48889ZM10.3691 4.2093L10.3534 2.61167L8.74 2.62788C8.6786 2.6288 8.62366 2.65473 8.5835 2.69593C8.54564 2.73482 8.5221 2.7876 8.52072 2.84593C8.52118 2.84917 8.52118 2.85287 8.52118 2.85611H8.52072C8.5221 2.91676 8.54795 2.97139 8.58858 3.01075C8.62736 3.04871 8.68044 3.07232 8.73815 3.07371C8.74138 3.07325 8.74507 3.07325 8.7483 3.07325V3.07371L9.26489 3.06537C9.29813 3.06352 9.33229 3.07556 9.35722 3.10102C9.40384 3.14825 9.40292 3.22464 9.35583 3.27093L6.83797 5.74643C6.79411 5.78995 6.72302 5.79272 6.67547 5.75152L4.92579 4.23484C4.88239 4.19734 4.82884 4.17928 4.7753 4.18021H4.77483C4.72128 4.1816 4.66773 4.20243 4.62665 4.24178L2.40294 6.37239L2.39924 6.37656L2.39694 6.37841C2.35215 6.421 2.32907 6.47748 2.32769 6.53443C2.3263 6.58952 2.34523 6.64507 2.38447 6.68906L2.38724 6.69183L2.38909 6.69415C2.43156 6.73906 2.48788 6.76221 2.54466 6.76359C2.60144 6.76498 2.65915 6.74461 2.70394 6.70202L4.70936 4.78072C4.75368 4.73859 4.82339 4.73627 4.87048 4.77701L6.61366 6.28765C6.61597 6.2895 6.61828 6.29135 6.62059 6.29367C6.66398 6.33302 6.71938 6.352 6.77432 6.35061C6.82833 6.34922 6.8828 6.32793 6.92481 6.28672L9.7113 3.54788C9.73254 3.52705 9.76116 3.51408 9.79347 3.51362C9.85949 3.5127 9.91396 3.56547 9.91488 3.63168L9.92411 4.21779C9.92596 4.32288 9.98228 4.38862 10.0543 4.41594C10.0848 4.42751 10.1176 4.43307 10.1499 4.4326C10.1822 4.43214 10.215 4.42566 10.2454 4.4127C10.3161 4.38307 10.3705 4.31547 10.3691 4.21039L10.3691 4.2093ZM3.79844 11.2121H1.81156V11.6116H11.1876V11.2121H3.79844ZM10.3686 5.44355H9.3207V10.9709H10.3686V5.44355ZM8.13843 7.84865H7.09049V10.9709H8.13843V7.84865ZM5.90822 6.91949H4.86028V10.9709H5.90822V6.91949ZM3.67801 8.78521H2.63007V10.9708H3.67801V8.78521Z" fill="black"/>
</svg>
